<?xml version="1.0" encoding="UTF-8" standalone="no"?>
<!-- Creator: CorelDRAW X7 -->

<svg
   xmlns:dc="http://purl.org/dc/elements/1.1/"
   xmlns:cc="http://creativecommons.org/ns#"
   xmlns:rdf="http://www.w3.org/1999/02/22-rdf-syntax-ns#"
   xmlns:svg="http://www.w3.org/2000/svg"
   xmlns="http://www.w3.org/2000/svg"
   xmlns:sodipodi="http://sodipodi.sourceforge.net/DTD/sodipodi-0.dtd"
   xmlns:inkscape="http://www.inkscape.org/namespaces/inkscape"
   xml:space="preserve"
   width="10.001in"
   height="1.554in"
   version="1.1"
   style="shape-rendering:geometricPrecision; text-rendering:geometricPrecision; image-rendering:optimizeQuality; fill-rule:evenodd; clip-rule:evenodd"
   viewBox="0 0 10001 1554"
   id="svg3813"
   sodipodi:docname="custom-cult-logo2.svg"
   inkscape:version="0.92.3 (2405546, 2018-03-11)"><metadata
   id="metadata3817"><rdf:RDF><cc:Work
       rdf:about=""><dc:format>image/svg+xml</dc:format><dc:type
         rdf:resource="http://purl.org/dc/dcmitype/StillImage" /><dc:title></dc:title></cc:Work></rdf:RDF></metadata><sodipodi:namedview
   pagecolor="#ffffff"
   bordercolor="#666666"
   borderopacity="1"
   objecttolerance="10"
   gridtolerance="10"
   guidetolerance="10"
   inkscape:pageopacity="0"
   inkscape:pageshadow="2"
   inkscape:window-width="1853"
   inkscape:window-height="1016"
   id="namedview3815"
   showgrid="false"
   inkscape:zoom="1.2277386"
   inkscape:cx="585.72429"
   inkscape:cy="138.59475"
   inkscape:window-x="67"
   inkscape:window-y="27"
   inkscape:window-maximized="1"
   inkscape:current-layer="svg3813" />
 <defs
   id="defs3787">
  <style
   type="text/css"
   id="style3785">
   <![CDATA[
    .str0 {stroke:black;stroke-width:10;stroke-linecap:round;stroke-linejoin:round}
    .fil0 {fill:black}
    .fil1 {fill:#F26229}
   ]]>
  </style>
 
  
  
  
 
   
   
   
   
   
   
   
   
   
   
  </defs>
 <g
   inkscape:label="Toolpath Previews"
   inkscape:groupmode="layer"
   id="_85667243-1302-4a85-b3ac-c7bf39b332ec">
  </g><path
   class="fil0 str0"
   d="m 656,1225 c -25,7 -51,13 -77,17 -25,4 -52,6 -78,6 0,0 0,0 0,0 0,0 0,0 0,0 -26,0 -52,-2 -78,-6 -26,-4 -52,-10 -77,-17 -24,-8 -49,-17 -72,-29 -23,-11 -46,-24 -67,-38 -21,-15 -41,-31 -60,-48 -18,-17 -35,-36 -51,-56 C 81,1034 67,1013 55,991 43,969 33,946 25,922 17,899 11,875 7,851 3,826 1,802 1,777 c 0,-25 2,-49 6,-74 4,-24 10,-48 18,-71 8,-24 18,-47 30,-69 12,-22 26,-43 41,-63 16,-20 33,-39 51,-56 19,-17 39,-33 60,-48 21,-14 44,-27 67,-38 23,-12 48,-21 72,-29 25,-7 51,-13 77,-17 26,-4 52,-6 78,-6 0,0 0,0 0,0 0,0 0,0 0,0 26,0 53,2 78,6 26,4 52,10 77,17 25,8 49,17 72,29 24,11 46,24 67,38 17,12 33,24 48,37 l -194,162 -7,-5 c -11,-7 -21,-14 -32,-19 -12,-6 -23,-11 -35,-14 -12,-4 -24,-7 -37,-9 -12,-2 -24,-3 -37,-3 0,0 0,0 0,0 0,0 0,0 0,0 -12,0 -25,1 -37,3 -13,2 -25,5 -37,9 -12,3 -23,8 -34,14 -12,5 -22,12 -32,19 -11,7 -20,15 -29,23 -9,9 -17,18 -24,28 -8,10 -14,20 -20,31 -6,11 -10,22 -14,33 -4,12 -7,24 -9,36 -2,12 -3,24 -3,36 0,12 1,24 3,36 2,12 5,24 9,36 4,11 8,22 14,33 6,11 12,21 20,31 7,10 15,19 24,28 9,8 18,16 29,23 10,7 20,14 32,19 11,6 22,11 34,14 12,4 24,7 37,9 12,2 25,3 37,3 0,0 0,0 0,0 0,0 0,0 0,0 13,0 25,-1 37,-3 13,-2 25,-5 37,-9 12,-3 23,-8 35,-14 11,-5 21,-12 32,-19 10,-7 19,-15 28,-23 9,-9 17,-18 24,-28 l 3,-3 200,154 c -13,16 -27,32 -42,46 -19,17 -39,33 -60,48 -21,14 -43,27 -67,38 -23,12 -47,21 -72,29 z"
   id="path3791"
   inkscape:connector-curvature="0"
   style="fill:#000000;stroke:#000000;stroke-width:10;stroke-linecap:round;stroke-linejoin:round" /><path
   class="fil0 str0"
   d="M 957,855 V 306 h 262 v 549 c 0,73 58,131 131,131 72,0 130,-58 130,-131 V 306 h 262 v 549 c 0,217 -176,393 -392,393 -217,0 -393,-176 -393,-393 z"
   id="path3793"
   inkscape:connector-curvature="0"
   style="fill:#000000;stroke:#000000;stroke-width:10;stroke-linecap:round;stroke-linejoin:round" /><path
   class="fil0 str0"
   d="m 2384,1019 c -40,13 -82,20 -124,20 -31,0 -62,-4 -92,-11 -64,-15 -126,-36 -185,-63 -1,-1 -1,-1 -2,-1 -3,0 -5,1 -6,3 l -115,185 c -1,1 -1,2 -1,3 0,3 1,5 4,6 l 190,63 c 43,12 88,19 133,22 19,1 39,2 58,2 60,0 121,-6 180,-18 32,-7 63,-17 93,-30 76,-31 133,-96 153,-176 4,-21 7,-43 7,-66 0,-37 -7,-73 -20,-108 -10,-30 -29,-56 -52,-76 -59,-44 -126,-74 -198,-90 v 0 c -83,-16 -165,-38 -246,-63 -16,-9 -27,-25 -27,-44 0,-14 7,-28 18,-37 11,-10 26,-17 41,-18 20,-3 40,-4 60,-4 40,0 81,5 120,17 l 148,52 c 0,0 1,0 2,0 2,0 4,-1 5,-3 l 113,-183 c 1,-1 1,-3 1,-4 0,-2 -1,-4 -3,-6 -68,-33 -140,-58 -214,-72 -47,-8 -94,-13 -141,-13 -50,0 -101,5 -151,15 -65,11 -127,40 -177,83 -46,41 -76,96 -85,157 -2,13 -3,27 -3,40 0,17 2,33 5,50 5,43 24,84 53,117 33,33 73,57 118,69 l 232,58 c 29,5 57,13 84,24 14,5 26,13 36,23 9,9 14,22 14,34 0,18 -10,35 -26,43 z"
   id="path3795"
   inkscape:connector-curvature="0"
   style="fill:#000000;stroke:#000000;stroke-width:10;stroke-linecap:round;stroke-linejoin:round" /><path
   class="fil0 str0"
   d="m 3019,1248 h 254 V 539 h 245 c 17,0 30,-14 30,-30 0,0 0,0 0,0 V 306 h -804 v 203 c 0,16 13,30 29,30 h 246 z"
   id="path3797"
   inkscape:connector-curvature="0"
   style="fill:#000000;stroke:#000000;stroke-width:10;stroke-linecap:round;stroke-linejoin:round" /><path
   class="fil0 str0"
   d="m 4002,997 c 12,4 24,7 37,9 12,2 25,3 37,3 0,0 0,0 0,0 0,0 0,0 0,0 13,0 25,-1 37,-3 13,-2 25,-5 37,-9 12,-3 23,-8 35,-14 11,-5 21,-12 32,-19 10,-7 19,-15 28,-23 9,-9 17,-18 25,-28 7,-10 13,-20 19,-31 6,-11 11,-22 14,-33 4,-12 7,-24 9,-36 2,-12 3,-24 3,-36 0,-12 -1,-24 -3,-36 -2,-12 -5,-24 -9,-36 -3,-11 -8,-22 -14,-33 -6,-11 -12,-21 -19,-31 -8,-10 -16,-19 -25,-28 -9,-8 -18,-16 -28,-23 -11,-7 -21,-14 -32,-19 -12,-6 -23,-11 -35,-14 -12,-4 -24,-7 -36,-9 -13,-2 -25,-3 -38,-3 0,0 0,0 0,0 0,0 0,0 0,0 -12,0 -25,1 -37,3 -13,2 -25,5 -37,9 -12,3 -23,8 -34,14 -12,5 -22,12 -32,19 -11,7 -20,15 -29,23 -9,9 -17,18 -24,28 -8,10 -14,20 -20,31 -6,11 -10,22 -14,33 -4,12 -7,24 -9,36 -2,12 -3,24 -3,36 0,12 1,24 3,36 2,12 5,24 9,36 4,11 8,22 14,33 6,11 12,21 20,31 7,10 15,19 24,28 9,8 19,16 29,23 10,7 20,14 32,19 11,6 22,11 34,14 z m -81,228 c 25,7 51,13 77,17 26,4 52,6 78,6 0,0 0,0 0,0 0,0 0,0 0,0 26,0 53,-2 78,-6 26,-4 52,-10 77,-17 25,-8 49,-17 72,-29 24,-11 46,-24 67,-38 21,-15 41,-31 60,-48 18,-17 36,-36 51,-56 15,-20 29,-41 41,-63 12,-22 22,-45 30,-69 8,-23 14,-47 18,-71 5,-25 7,-49 7,-74 0,-25 -2,-49 -7,-74 -4,-24 -10,-48 -18,-71 -8,-24 -18,-47 -30,-69 -12,-22 -26,-43 -41,-63 -15,-20 -33,-39 -51,-56 -19,-17 -39,-33 -60,-48 -21,-14 -43,-27 -67,-38 -23,-12 -47,-21 -72,-29 -25,-7 -51,-13 -77,-17 -25,-4 -52,-6 -78,-6 0,0 0,0 0,0 0,0 0,0 0,0 -26,0 -52,2 -78,6 -26,4 -52,10 -77,17 -24,8 -49,17 -72,29 -23,11 -46,24 -67,38 -21,15 -41,31 -60,48 -18,17 -35,36 -51,56 -15,20 -29,41 -41,63 -12,22 -22,45 -30,69 -8,23 -14,47 -18,71 -4,25 -6,49 -6,74 0,25 2,49 6,74 4,24 10,48 18,71 8,24 18,47 30,69 12,22 26,43 41,63 16,20 33,39 51,56 19,17 39,33 60,48 21,14 44,27 67,38 23,12 48,21 72,29 z"
   id="path3799"
   inkscape:connector-curvature="0"
   style="fill:#000000;stroke:#000000;stroke-width:10;stroke-linecap:round;stroke-linejoin:round" /><path
   style="fill:#f26229"
   d="m 6556.7663,953.34876 597.4562,-0.37992 -298.3991,-516.84233 z"
   id="path3849"
   inkscape:connector-curvature="0" /><path
   style="fill:#f26229"
   d="m 7291,839 c -30,219 -218,382 -439,382 -201,0 -377,-135 -429,-329 -10,-38 -15,-76 -15,-115 0,-245 199,-444 444,-444 136,0 266,63 350,171 L 7464,299 C 7317,111 7091,0 6852,0 c -429,0 -777,348 -777,777 0,68 9,136 27,201 91,339 398,576 750,576 387,0 715,-286 769,-669 z"
   id="path3801" /><path
   class="fil0 str0"
   d="M 7743,855 V 306 h 262 v 549 c 0,73 59,131 131,131 72,0 130,-58 130,-131 V 306 h 262 v 549 c 0,217 -176,393 -392,393 -217,0 -393,-176 -393,-393 z"
   id="path3803"
   inkscape:connector-curvature="0"
   style="fill:#000000;stroke:#000000;stroke-width:10;stroke-linecap:round;stroke-linejoin:round" /><path
   class="fil0 str0"
   d="M 9471,1248 V 545 h -244 c -16,0 -30,-13 -30,-29 V 306 h 803 v 210 c 0,16 -13,29 -29,29 h -239 v 703 z"
   id="path3805"
   inkscape:connector-curvature="0"
   style="fill:#000000;stroke:#000000;stroke-width:10;stroke-linecap:round;stroke-linejoin:round" /><path
   class="fil0 str0"
   d="m 8620,1248 h 753 v -210 c 0,-16 -13,-29 -30,-29 H 8879 V 306 h -259 z"
   id="path3807"
   inkscape:connector-curvature="0"
   style="fill:#000000;stroke:#000000;stroke-width:10;stroke-linecap:round;stroke-linejoin:round" /><path
   class="fil0 str0"
   d="m 5506,1248 h 122 V 306 h -227 c 0,0 0,0 0,0 -10,0 -20,6 -26,15 -70,117 -148,250 -219,367 -75,-120 -151,-243 -220,-366 -5,-10 -15,-16 -26,-16 h -228 v 942 h 247 V 765 l 201,333 c 5,9 15,14 26,14 10,0 20,-5 25,-14 l 204,-337 v 487 z"
   id="path3809"
   inkscape:connector-curvature="0"
   style="fill:#000000;stroke:#000000;stroke-width:10;stroke-linecap:round;stroke-linejoin:round" />
</svg>